<svg width="67" height="68" viewBox="0 0 67 68" fill="none" xmlns="http://www.w3.org/2000/svg">
<path d="M24.8893 28.1427C27.944 28.1427 30.4203 25.6227 30.4203 22.5142C30.4203 19.4057 27.944 16.8857 24.8893 16.8857C21.8347 16.8857 19.3584 19.4057 19.3584 22.5142C19.3584 25.6227 21.8347 28.1427 24.8893 28.1427Z" stroke="white" stroke-width="1.5" stroke-linecap="round" stroke-linejoin="round"/>
<path d="M35.9511 5.62793H24.8893C11.0619 5.62793 5.53101 11.2564 5.53101 25.3275V42.2129C5.53101 56.2841 11.0619 61.9125 24.8893 61.9125H41.4821C55.3094 61.9125 60.8403 56.2841 60.8403 42.2129V28.1418" stroke="white" stroke-width="1.5" stroke-linecap="round" stroke-linejoin="round"/>
<path d="M43.5562 14.0693H58.7662" stroke="white" stroke-width="1.5" stroke-linecap="round"/>
<path d="M51.1611 21.8103V6.33203" stroke="white" stroke-width="1.5" stroke-linecap="round"/>
<path d="M7.38379 53.3277L21.0175 44.0126C23.2022 42.521 26.3549 42.6899 28.3184 44.4065L29.231 45.2227C31.388 47.1082 34.8725 47.1082 37.0296 45.2227L48.5339 35.1759C50.691 33.2903 54.1755 33.2903 56.3325 35.1759L60.8402 39.1158" stroke="white" stroke-width="1.5" stroke-linecap="round" stroke-linejoin="round"/>
</svg>
