<svg width="24" height="24" viewBox="0 0 24 24" fill="none" xmlns="http://www.w3.org/2000/svg">
  <path d="M8.7 10.9L15.3 7.1" stroke="#D2D2D2" stroke-width="1.7" stroke-linecap="round"/>
  <path d="M8.7 13.1L15.3 16.9" stroke="#D2D2D2" stroke-width="1.7" stroke-linecap="round"/>
  <path d="M6.5 15.2C8.26731 15.2 9.7 13.7673 9.7 12C9.7 10.2327 8.26731 8.8 6.5 8.8C4.73269 8.8 3.3 10.2327 3.3 12C3.3 13.7673 4.73269 15.2 6.5 15.2Z" stroke="#D2D2D2" stroke-width="1.7"/>
  <path d="M17.5 8.2C19.2673 8.2 20.7 6.76731 20.7 5C20.7 3.23269 19.2673 1.8 17.5 1.8C15.7327 1.8 14.3 3.23269 14.3 5C14.3 6.76731 15.7327 8.2 17.5 8.2Z" stroke="#D2D2D2" stroke-width="1.7"/>
  <path d="M17.5 22.2C19.2673 22.2 20.7 20.7673 20.7 19C20.7 17.2327 19.2673 15.8 17.5 15.8C15.7327 15.8 14.3 17.2327 14.3 19C14.3 20.7673 15.7327 22.2 17.5 22.2Z" stroke="#D2D2D2" stroke-width="1.7"/>
</svg>
